HIERARCHY
ROOT root
{
	OFFSET 0.000000 0.000000 0.000000
	CHANNELS 6 Xposition Yposition Zposition Zrotation Yrotation Xrotation
	JOINT lhip
	{
		OFFSET 0.058581 -0.082280 -0.017664
		CHANNELS 3 Zrotation Yrotation Xrotation
		JOINT lknee
		{
			OFFSET 0.043451 -0.386469 0.008037
			CHANNELS 3 Zrotation Yrotation Xrotation
			JOINT lankle
			{
				OFFSET -0.014790 -0.426874 -0.037428
				CHANNELS 3 Zrotation Yrotation Xrotation
				JOINT ltoe
				{
					OFFSET 0.041054 -0.060286 0.122042
					CHANNELS 3 Zrotation Yrotation Xrotation
					End Site
					{
						OFFSET 0.000000 0.000000 0.000000
					}
				}
			}
		}
	}
	JOINT rhip
	{
		OFFSET -0.060310 -0.090513 -0.013543
		CHANNELS 3 Zrotation Yrotation Xrotation
		JOINT rknee
		{
			OFFSET -0.043257 -0.383688 -0.004843
			CHANNELS 3 Zrotation Yrotation Xrotation
			JOINT rankle
			{
				OFFSET 0.019056 -0.420046 -0.034562
				CHANNELS 3 Zrotation Yrotation Xrotation
				JOINT rtoe
				{
					OFFSET -0.034840 -0.062106 0.130323
					CHANNELS 3 Zrotation Yrotation Xrotation
					End Site
					{
						OFFSET 0.000000 0.000000 0.000000
					}
				}
			}
		}
	}
	JOINT lowerback
	{
		OFFSET 0.004439 0.124404 -0.038385
		CHANNELS 3 Zrotation Yrotation Xrotation
		JOINT upperback
		{
			OFFSET 0.004488 0.137956 0.026820
			CHANNELS 3 Zrotation Yrotation Xrotation
			JOINT chest
			{
				OFFSET -0.002265 0.056032 0.002855
				CHANNELS 3 Zrotation Yrotation Xrotation
				JOINT lowerneck
				{
					OFFSET -0.013390 0.211636 -0.033468
					CHANNELS 3 Zrotation Yrotation Xrotation
					JOINT upperneck
					{
						OFFSET 0.010113 0.088937 0.050410
						CHANNELS 3 Zrotation Yrotation Xrotation
						End Site
						{
							OFFSET 0.000000 0.000000 0.000000
						}
					}
				}
				JOINT lclavicle
				{
					OFFSET 0.071702 0.114000 -0.018898
					CHANNELS 3 Zrotation Yrotation Xrotation
					JOINT lshoulder
					{
						OFFSET 0.122921 0.045205 -0.019046
						CHANNELS 3 Zrotation Yrotation Xrotation
						JOINT lelbow
						{
							OFFSET 0.255332 -0.015649 -0.022946
							CHANNELS 3 Zrotation Yrotation Xrotation
							JOINT lwrist
							{
								OFFSET 0.265709 0.012698 -0.007375
								CHANNELS 3 Zrotation Yrotation Xrotation
								End Site
								{
									OFFSET 0.000000 0.000000 0.000000
								}
							}
						}
					}
				}
				JOINT rclavicle
				{
					OFFSET -0.082954 0.112472 -0.023707
					CHANNELS 3 Zrotation Yrotation Xrotation
					JOINT rshoulder
					{
						OFFSET -0.113228 0.046853 -0.008472
						CHANNELS 3 Zrotation Yrotation Xrotation
						JOINT relbow
						{
							OFFSET -0.260127 -0.014369 -0.031269
							CHANNELS 3 Zrotation Yrotation Xrotation
							JOINT rwrist
							{
								OFFSET -0.269108 0.006794 -0.006027
								CHANNELS 3 Zrotation Yrotation Xrotation
								End Site
								{
									OFFSET 0.000000 0.000000 0.000000
								}
							}
						}
					}
				}
			}
		}
	}
}
MOTION
Frames: 13
Frame Time: 0.033333
-0.235564 0.224721 1.215706 -1.601886 2.008120 84.637591 -0.440197 -1.309006 2.283780 -7.883871 -13.887093 18.777645 2.201762 8.697610 -11.521212 0.000000 -0.000000 0.000000 1.233264 7.160358 -28.571682 1.991117 -11.570839 84.636663 2.020195 -4.166634 -18.467037 0.000000 -0.000000 0.000000 -3.217343 -4.993073 24.391120 3.221659 1.182764 0.379913 -1.473822 -2.789000 4.351602 6.011738 7.780612 12.840956 -6.108284 -0.905288 25.850973 -29.703413 9.804320 -0.749397 -54.603042 -1.181535 8.458928 17.470091 -49.549231 -5.625636 6.809439 -7.646879 -2.815875 31.035507 -6.031194 -2.061330 53.301711 1.190314 14.184179 -20.847872 50.887065 -9.795144 -6.951063 8.362578 0.379422 
-0.237324 0.228948 1.213331 -1.664729 1.530467 85.238492 -0.705694 -1.283251 1.067106 -8.095911 -13.158690 19.280675 2.073202 8.172904 -11.731066 0.000000 -0.000000 0.000000 1.947370 6.843659 -23.743803 2.861759 -9.108763 72.284631 2.598727 -4.671057 -17.740581 0.000000 -0.000000 0.000000 -3.394399 -4.237217 23.680234 2.793999 0.751831 -0.236239 -1.404971 -2.573426 4.751187 5.681070 7.338965 12.417327 -5.601706 -0.674430 25.959750 -29.746399 10.568033 -1.051642 -54.494548 -1.526534 8.566627 16.744959 -49.463335 -4.807069 7.971722 -7.873725 -3.019962 30.956679 -6.711733 -2.303457 53.436352 0.899306 14.744524 -20.541463 50.960727 -9.335527 -7.013374 8.411041 0.289910 
-0.239881 0.234039 1.209807 -1.877093 1.403487 86.292730 -0.719602 -1.680090 -1.008772 -8.392495 -12.530107 20.421988 3.183204 8.206007 -11.844331 0.000000 -0.000000 0.000000 3.284445 6.375968 -19.715686 2.983295 -5.927539 59.214851 2.700198 -6.547870 -17.408538 0.000000 -0.000000 0.000000 -3.207915 -3.312485 22.291418 2.765503 0.700505 -0.517453 -1.514010 -2.618201 5.722878 5.234731 7.230705 11.395026 -5.433823 -0.777658 25.533673 -29.710078 11.546838 -0.929582 -54.532447 -2.859273 9.148869 15.700020 -49.633398 -1.796148 12.015152 -7.380829 -6.911676 30.969533 -7.418235 -2.523961 53.890163 1.102867 16.532586 -22.995048 50.689704 -8.167806 -4.248907 8.066153 -4.411729 
-0.242663 0.238420 1.205950 -1.822444 0.975933 86.902613 -1.178417 -2.322432 -2.648120 -8.365396 -11.665453 21.808764 2.941839 7.943948 -12.488977 0.000000 -0.000000 0.000000 4.115674 5.833162 -15.435619 1.958146 -3.613890 47.263130 2.196493 -7.907733 -16.780293 0.000000 -0.000000 0.000000 -3.303266 -2.099636 21.529717 2.505935 0.293595 -0.507740 -1.215705 -2.620668 5.915622 4.754410 6.806496 11.226340 -4.923674 -0.728483 24.721027 -29.303903 11.556462 -0.596368 -55.172028 -3.167901 9.288514 16.018179 -49.759326 -1.086610 13.968854 -7.040484 -8.413034 30.624475 -7.509935 -2.340112 54.195854 0.917086 17.017453 -22.465158 50.960186 -6.520586 -7.017560 7.592995 -4.066876 
-0.245246 0.242602 1.201684 -1.840309 0.348886 87.420332 -2.013323 -3.408378 -4.027307 -7.947595 -10.309753 22.818041 3.529975 8.157790 -13.073190 0.000000 -0.000000 0.000000 4.507622 4.982609 -12.407341 1.224794 -1.361878 38.987595 2.191638 -7.660950 -13.389167 0.000000 -0.000000 0.000000 -3.283177 -0.850431 20.746647 2.220579 -0.308688 -0.313974 -1.231499 -2.520880 6.047481 4.147275 6.413910 11.071962 -4.411090 -0.623464 24.245615 -28.893700 11.513568 -0.606194 -55.663311 -3.364896 9.602547 16.054684 -49.742666 -0.794153 14.981184 -7.249197 -8.958420 30.612239 -7.575904 -2.294458 54.713881 0.898250 17.379062 -23.233190 50.627672 -6.870952 -7.555844 7.587633 -3.574244 
-0.248379 0.246902 1.197977 -1.500520 -0.218588 87.486030 -2.622457 -4.238307 -5.251851 -7.748124 -9.218972 24.478302 3.256346 8.410363 -14.294333 0.000000 -0.000000 0.000000 4.834988 4.120083 -9.443236 0.450106 -0.175807 34.264181 1.889620 -7.444125 -17.174932 0.000000 -0.000000 0.000000 -3.204717 0.259444 20.544941 2.052165 -0.877917 -0.243871 -1.220456 -2.505179 6.301407 4.098882 6.680929 10.830508 -4.413478 -0.903195 24.104799 -28.523925 11.235936 -0.737661 -55.875889 -3.225545 9.866903 15.750875 -50.124534 0.225633 14.792721 -7.078267 -9.468033 30.416082 -7.395118 -2.239296 55.307208 0.791744 17.302394 -23.537698 50.576218 -6.730792 -7.508450 7.359749 -4.252446 
-0.251089 0.252298 1.194917 -1.071326 -0.400610 87.249222 -2.805973 -4.876136 -6.124359 -7.730742 -8.980096 25.915362 3.015417 8.357013 -14.838324 0.000000 -0.000000 0.000000 5.357378 3.709205 -6.383355 -0.074315 0.533299 29.019183 0.979640 -7.196541 -20.178691 0.000000 -0.000000 0.000000 -2.453928 0.886205 20.963185 1.793097 -1.010092 -0.197965 -1.245665 -2.356075 6.396440 3.743226 6.758465 10.407152 -4.439830 -1.256257 23.983034 -28.510600 10.877891 -0.920439 -56.113803 -3.269263 9.959974 15.622055 -50.392510 0.755468 15.028049 -7.010604 -9.616548 30.219524 -7.147797 -2.139597 55.287910 0.536200 17.117161 -23.366840 51.078066 -6.347608 -8.080373 7.250346 -4.774832 
-0.254532 0.258518 1.192712 -1.050851 -0.604631 87.645933 -2.953771 -5.199763 -7.607200 -7.384996 -8.173371 27.136937 3.082392 8.406307 -15.034594 0.000000 -0.000000 0.000000 5.852031 3.257558 -5.761419 -0.736320 0.721102 26.284195 0.260627 -8.636178 -21.580608 0.000000 -0.000000 0.000000 -2.221593 1.510526 20.636483 1.822878 -0.815279 -0.047398 -1.212576 -2.030163 6.447835 3.679643 6.660750 10.008373 -4.548930 -1.470293 24.230780 -28.416875 10.845951 -0.740846 -56.605453 -3.522940 10.089703 15.738578 -50.854613 0.961440 15.123438 -6.807461 -10.295836 30.268605 -6.775057 -1.762809 55.218286 0.846561 17.059811 -23.871482 50.900811 -6.502646 -8.124430 7.325463 -4.917370 
-0.257576 0.265579 1.192845 -0.767223 -0.983254 87.933129 -3.108817 -5.559083 -8.859427 -7.171786 -7.208297 27.730356 2.639233 8.047975 -14.481166 0.000000 -0.000000 0.000000 5.833062 2.743161 -5.687101 -1.081960 0.556114 24.515766 -0.340125 -8.611831 -21.658274 0.000000 -0.000000 0.000000 -1.825172 2.108103 20.910720 1.642792 -0.687877 -0.202168 -1.231765 -1.917298 6.426106 3.464968 6.481285 9.752472 -4.445702 -1.662247 24.413986 -28.435581 10.739660 -0.762683 -56.960405 -3.633857 10.252581 15.928607 -51.099437 0.846273 15.332711 -6.887509 -10.432658 30.323658 -6.470592 -1.649471 55.137245 1.220522 17.000586 -23.926372 50.636491 -6.410797 -8.147854 7.328051 -4.651202 
-0.259081 0.273999 1.195013 -0.024519 -1.600631 88.311822 -3.255905 -6.166721 -10.430274 -7.700103 -7.062839 28.702991 2.344072 7.179207 -12.916038 0.000000 -0.000000 0.000000 4.941096 2.348616 -6.528490 -0.827327 0.182429 24.105237 -0.450166 -8.384481 -21.138449 0.000000 -0.000000 0.000000 -1.389927 2.178539 21.564686 1.447103 -0.636796 -0.584158 -1.391235 -1.878705 6.140779 3.029671 6.161960 9.678321 -4.361992 -1.603187 24.128714 -28.619421 10.767623 -0.782792 -57.061223 -3.541431 10.418697 15.902220 -51.436679 1.272400 15.241580 -6.811304 -10.764527 30.058626 -6.375705 -1.472900 55.367980 1.526736 16.911575 -24.095999 50.643904 -6.815667 -8.608540 7.053569 -4.869215 
-0.261178 0.283480 1.196962 0.438809 -1.795219 88.671864 -2.588124 -6.228472 -12.013351 -8.652193 -7.476204 30.206604 0.196367 6.327922 -14.485018 0.000000 -0.000000 0.000000 4.417693 1.818914 -7.737500 -0.500771 -0.049561 24.335201 0.101375 -7.465794 -20.721058 0.000000 -0.000000 0.000000 -0.721601 2.371679 21.887987 1.458644 -0.598915 -0.499803 -1.515940 -1.712653 6.048381 2.712867 6.028227 9.379099 -4.537218 -2.044286 23.514824 -28.602381 10.462130 -0.789805 -57.432015 -3.346843 10.480881 15.764389 -51.746389 1.348826 15.732884 -7.015257 -10.510249 29.791145 -5.975686 -1.082232 55.392392 1.923443 16.497678 -24.691385 51.152619 -7.491137 -8.824984 7.009213 -4.900005 
-0.262017 0.291364 1.198210 0.822897 -2.248762 88.570590 -2.592484 -5.987620 -12.521261 -9.282881 -7.745667 32.184131 0.183508 6.133547 -18.589539 0.000000 -0.000000 0.000000 3.736088 1.486514 -8.311627 -0.242602 -0.198387 24.510322 0.488547 -7.148269 -20.432746 0.000000 -0.000000 0.000000 -0.526115 2.416093 22.383669 1.470282 -0.482608 -0.592578 -1.416996 -1.549048 6.117109 2.564670 5.719401 9.348072 -4.727535 -2.019043 23.209509 -28.588351 10.178756 -0.483937 -57.687014 -2.940403 10.380925 15.334652 -52.245763 1.642567 16.129873 -7.218573 -10.660481 29.409256 -5.473145 -0.767573 54.873884 2.121409 16.180403 -24.572035 51.953418 -7.641438 -8.875154 7.217125 -4.840117 
-0.262586 0.299213 1.198613 0.875865 -2.775531 88.578881 -2.708034 -5.959625 -13.144563 -9.377536 -5.979120 36.354493 1.011327 7.413576 -21.768265 0.000000 -0.000000 0.000000 3.159798 1.652939 -9.117970 -0.122888 -0.698966 24.974695 0.870050 -7.566327 -20.309768 0.000000 -0.000000 0.000000 -0.483632 2.534408 22.644126 1.434927 -0.369860 -0.874333 -1.427469 -1.621230 6.198665 2.592145 5.451987 9.634724 -5.187181 -1.753687 22.942644 -28.609450 10.427352 -0.283557 -57.555031 -2.650550 10.312906 14.420578 -52.471095 2.653039 16.049731 -7.392441 -10.689384 29.304380 -5.336585 -0.921314 54.342647 2.545325 16.373478 -24.014073 52.326515 -7.300433 -8.956554 7.343124 -4.854491 
